<mxfile host="app.diagrams.net" modified="2020-09-11T07:16:45.214Z" agent="5.0 (Windows NT 10.0; Win64; x64) AppleWebKit/537.36 (KHTML, like Gecko) Chrome/85.0.4183.102 Safari/537.36" etag="Um4CZNmKebYkZuXQSciQ" version="13.6.9" type="github">
  <diagram id="C5RBs43oDa-KdzZeNtuy" name="Page-1">
    <mxGraphModel dx="1475" dy="374" grid="1" gridSize="10" guides="1" tooltips="1" connect="1" arrows="1" fold="1" page="1" pageScale="1" pageWidth="827" pageHeight="1169" math="1" shadow="0">
      <root>
        <mxCell id="WIyWlLk6GJQsqaUBKTNV-0" />
        <mxCell id="WIyWlLk6GJQsqaUBKTNV-1" parent="WIyWlLk6GJQsqaUBKTNV-0" />
        <mxCell id="5BxzUbeMujvAWOUuop8R-0" value="&lt;b&gt;Conv1D&lt;br&gt;&lt;/b&gt;&lt;font style=&quot;font-size: 14px&quot;&gt;Para=(nf, n)&lt;/font&gt;" style="rounded=0;whiteSpace=wrap;html=1;fillColor=#f8cecc;strokeColor=#b85450;align=left;verticalAlign=top;" parent="WIyWlLk6GJQsqaUBKTNV-1" vertex="1">
          <mxGeometry x="-810" y="80" width="300" height="230" as="geometry" />
        </mxCell>
        <mxCell id="5BxzUbeMujvAWOUuop8R-67" style="edgeStyle=orthogonalEdgeStyle;rounded=1;orthogonalLoop=1;jettySize=auto;html=1;entryX=1;entryY=0.5;entryDx=0;entryDy=0;verticalAlign=top;" parent="WIyWlLk6GJQsqaUBKTNV-1" source="5BxzUbeMujvAWOUuop8R-1" target="5BxzUbeMujvAWOUuop8R-6" edge="1">
          <mxGeometry relative="1" as="geometry" />
        </mxCell>
        <mxCell id="5BxzUbeMujvAWOUuop8R-1" value="&lt;b&gt;W&lt;br&gt;&lt;/b&gt;Weight&lt;br&gt;dim(n, nf)" style="rounded=0;whiteSpace=wrap;html=1;fillColor=#d5e8d4;strokeColor=#82b366;verticalAlign=top;" parent="WIyWlLk6GJQsqaUBKTNV-1" vertex="1">
          <mxGeometry x="-600" y="130" width="80" height="60" as="geometry" />
        </mxCell>
        <mxCell id="5BxzUbeMujvAWOUuop8R-66" style="edgeStyle=orthogonalEdgeStyle;rounded=1;orthogonalLoop=1;jettySize=auto;html=1;entryX=0;entryY=0.5;entryDx=0;entryDy=0;verticalAlign=top;" parent="WIyWlLk6GJQsqaUBKTNV-1" source="5BxzUbeMujvAWOUuop8R-2" target="5BxzUbeMujvAWOUuop8R-6" edge="1">
          <mxGeometry relative="1" as="geometry" />
        </mxCell>
        <mxCell id="5BxzUbeMujvAWOUuop8R-2" value="&lt;b&gt;B&lt;br&gt;&lt;/b&gt;Bias&lt;br&gt;dim(1, nf)" style="rounded=0;whiteSpace=wrap;html=1;fillColor=#d5e8d4;strokeColor=#82b366;verticalAlign=top;" parent="WIyWlLk6GJQsqaUBKTNV-1" vertex="1">
          <mxGeometry x="-800" y="130" width="80" height="60" as="geometry" />
        </mxCell>
        <mxCell id="5BxzUbeMujvAWOUuop8R-3" value="&lt;b&gt;X&lt;br&gt;&lt;/b&gt;Input&lt;br&gt;dim(b, s, n)" style="rounded=1;whiteSpace=wrap;html=1;labelBackgroundColor=none;fillColor=#dae8fc;strokeColor=#6c8ebf;verticalAlign=top;" parent="WIyWlLk6GJQsqaUBKTNV-1" vertex="1">
          <mxGeometry x="-720" y="10" width="120" height="60" as="geometry" />
        </mxCell>
        <mxCell id="5BxzUbeMujvAWOUuop8R-6" value="&lt;b&gt;O&#39;&lt;/b&gt; = &lt;b&gt;B&lt;/b&gt; + &lt;b&gt;X&#39;W&lt;/b&gt;&lt;br&gt;dim(b*s, nf)" style="rounded=0;whiteSpace=wrap;html=1;verticalAlign=top;" parent="WIyWlLk6GJQsqaUBKTNV-1" vertex="1">
          <mxGeometry x="-720" y="210" width="120" height="60" as="geometry" />
        </mxCell>
        <mxCell id="5BxzUbeMujvAWOUuop8R-44" value="" style="endArrow=classic;html=1;exitX=0.5;exitY=1;exitDx=0;exitDy=0;entryX=0.5;entryY=0;entryDx=0;entryDy=0;edgeStyle=orthogonalEdgeStyle;verticalAlign=top;" parent="WIyWlLk6GJQsqaUBKTNV-1" source="5BxzUbeMujvAWOUuop8R-3" target="5BxzUbeMujvAWOUuop8R-4" edge="1">
          <mxGeometry relative="1" as="geometry">
            <mxPoint x="-780" y="230" as="sourcePoint" />
            <mxPoint x="-760" y="260" as="targetPoint" />
          </mxGeometry>
        </mxCell>
        <mxCell id="5BxzUbeMujvAWOUuop8R-45" value="reshape" style="edgeLabel;resizable=0;html=1;align=center;verticalAlign=top;labelBorderColor=#000000;" parent="5BxzUbeMujvAWOUuop8R-44" connectable="0" vertex="1">
          <mxGeometry relative="1" as="geometry" />
        </mxCell>
        <mxCell id="5BxzUbeMujvAWOUuop8R-49" value="&lt;b&gt;O&lt;/b&gt;&lt;br&gt;Output&lt;br&gt;dim(b, s, nf)" style="rounded=1;whiteSpace=wrap;html=1;shadow=0;glass=0;labelBackgroundColor=none;sketch=0;fillColor=#dae8fc;strokeColor=#6c8ebf;verticalAlign=top;" parent="WIyWlLk6GJQsqaUBKTNV-1" vertex="1">
          <mxGeometry x="-720" y="330" width="120" height="60" as="geometry" />
        </mxCell>
        <mxCell id="5BxzUbeMujvAWOUuop8R-50" value="" style="endArrow=classic;html=1;exitX=0.5;exitY=1;exitDx=0;exitDy=0;entryX=0.5;entryY=0;entryDx=0;entryDy=0;verticalAlign=top;" parent="WIyWlLk6GJQsqaUBKTNV-1" source="5BxzUbeMujvAWOUuop8R-6" target="5BxzUbeMujvAWOUuop8R-49" edge="1">
          <mxGeometry relative="1" as="geometry">
            <mxPoint x="-780" y="230" as="sourcePoint" />
            <mxPoint x="-780" y="290" as="targetPoint" />
          </mxGeometry>
        </mxCell>
        <mxCell id="5BxzUbeMujvAWOUuop8R-51" value="reshape" style="edgeLabel;resizable=0;html=1;align=center;verticalAlign=top;labelBorderColor=#000000;" parent="5BxzUbeMujvAWOUuop8R-50" connectable="0" vertex="1">
          <mxGeometry relative="1" as="geometry">
            <mxPoint y="-5.14" as="offset" />
          </mxGeometry>
        </mxCell>
        <mxCell id="5BxzUbeMujvAWOUuop8R-65" value="" style="edgeStyle=orthogonalEdgeStyle;rounded=1;orthogonalLoop=1;jettySize=auto;html=1;verticalAlign=top;" parent="WIyWlLk6GJQsqaUBKTNV-1" source="5BxzUbeMujvAWOUuop8R-4" target="5BxzUbeMujvAWOUuop8R-6" edge="1">
          <mxGeometry relative="1" as="geometry" />
        </mxCell>
        <mxCell id="5BxzUbeMujvAWOUuop8R-4" value="&lt;b&gt;X&#39;&lt;br&gt;&lt;/b&gt;&lt;span&gt;dim(b*s, n)&lt;/span&gt;&lt;b&gt;&lt;br&gt;&lt;/b&gt;" style="rounded=0;whiteSpace=wrap;html=1;glass=0;shadow=0;sketch=0;verticalAlign=top;" parent="WIyWlLk6GJQsqaUBKTNV-1" vertex="1">
          <mxGeometry x="-700" y="130" width="80" height="60" as="geometry" />
        </mxCell>
        <mxCell id="d6zdg5Zss90YRGik0xC2-3" value="" style="edgeStyle=orthogonalEdgeStyle;rounded=0;orthogonalLoop=1;jettySize=auto;html=1;entryX=0.5;entryY=0;entryDx=0;entryDy=0;" edge="1" parent="WIyWlLk6GJQsqaUBKTNV-1" source="7JXXCMrdwitXyQzOqRTU-0" target="7JXXCMrdwitXyQzOqRTU-12">
          <mxGeometry relative="1" as="geometry" />
        </mxCell>
        <mxCell id="7JXXCMrdwitXyQzOqRTU-0" value="&lt;b&gt;Conv1D&lt;/b&gt;$$Para=(3h,h)$$" style="rounded=0;whiteSpace=wrap;html=1;shadow=0;glass=0;labelBackgroundColor=none;sketch=0;align=center;verticalAlign=top;fillColor=#f8cecc;strokeColor=#b85450;" parent="WIyWlLk6GJQsqaUBKTNV-1" vertex="1">
          <mxGeometry x="-250" y="110" width="120" height="60" as="geometry" />
        </mxCell>
        <mxCell id="7JXXCMrdwitXyQzOqRTU-2" value="&lt;b&gt;Dropout&lt;/b&gt;&lt;br&gt;$$Para(p=a)$$" style="rounded=0;whiteSpace=wrap;html=1;shadow=0;glass=0;labelBackgroundColor=none;sketch=0;align=center;verticalAlign=top;" parent="WIyWlLk6GJQsqaUBKTNV-1" vertex="1">
          <mxGeometry x="-255" y="980" width="120" height="60" as="geometry" />
        </mxCell>
        <mxCell id="d6zdg5Zss90YRGik0xC2-16" style="edgeStyle=orthogonalEdgeStyle;rounded=0;orthogonalLoop=1;jettySize=auto;html=1;" edge="1" parent="WIyWlLk6GJQsqaUBKTNV-1" target="7JXXCMrdwitXyQzOqRTU-52">
          <mxGeometry relative="1" as="geometry">
            <mxPoint x="-330" y="441" as="sourcePoint" />
          </mxGeometry>
        </mxCell>
        <mxCell id="d6zdg5Zss90YRGik0xC2-22" value="" style="edgeStyle=orthogonalEdgeStyle;rounded=0;orthogonalLoop=1;jettySize=auto;html=1;" edge="1" parent="WIyWlLk6GJQsqaUBKTNV-1" source="7JXXCMrdwitXyQzOqRTU-4" target="7JXXCMrdwitXyQzOqRTU-54">
          <mxGeometry relative="1" as="geometry" />
        </mxCell>
        <mxCell id="d6zdg5Zss90YRGik0xC2-23" value="" style="edgeStyle=orthogonalEdgeStyle;rounded=0;orthogonalLoop=1;jettySize=auto;html=1;entryX=0.5;entryY=0;entryDx=0;entryDy=0;exitX=0.851;exitY=0.997;exitDx=0;exitDy=0;exitPerimeter=0;" edge="1" parent="WIyWlLk6GJQsqaUBKTNV-1" source="7JXXCMrdwitXyQzOqRTU-4" target="7JXXCMrdwitXyQzOqRTU-55">
          <mxGeometry relative="1" as="geometry">
            <Array as="points" />
          </mxGeometry>
        </mxCell>
        <mxCell id="7JXXCMrdwitXyQzOqRTU-4" value="&lt;b&gt;split_heads&amp;nbsp;&lt;/b&gt;$$set(n_head=n),&lt;br&gt;h&#39; = h/n$$" style="rounded=0;whiteSpace=wrap;html=1;shadow=0;glass=0;labelBackgroundColor=none;sketch=0;align=center;verticalAlign=top;horizontal=1;" parent="WIyWlLk6GJQsqaUBKTNV-1" vertex="1">
          <mxGeometry x="-390" y="380" width="400" height="60" as="geometry" />
        </mxCell>
        <mxCell id="7JXXCMrdwitXyQzOqRTU-6" value="Attention" style="rounded=0;whiteSpace=wrap;html=1;shadow=0;glass=0;labelBackgroundColor=none;sketch=0;align=center;verticalAlign=top;" parent="WIyWlLk6GJQsqaUBKTNV-1" vertex="1">
          <mxGeometry x="-520" y="40" width="120" height="140" as="geometry" />
        </mxCell>
        <mxCell id="7JXXCMrdwitXyQzOqRTU-7" value="self-attention" style="rounded=0;whiteSpace=wrap;html=1;shadow=0;glass=0;labelBackgroundColor=none;sketch=0;align=center;verticalAlign=top;" parent="WIyWlLk6GJQsqaUBKTNV-1" vertex="1">
          <mxGeometry x="-480" y="640" width="120" height="500" as="geometry" />
        </mxCell>
        <mxCell id="7JXXCMrdwitXyQzOqRTU-8" value="merge_heads" style="rounded=0;whiteSpace=wrap;html=1;shadow=0;glass=0;labelBackgroundColor=none;sketch=0;align=center;verticalAlign=top;" parent="WIyWlLk6GJQsqaUBKTNV-1" vertex="1">
          <mxGeometry x="-480" y="1160" width="120" height="150" as="geometry" />
        </mxCell>
        <mxCell id="d6zdg5Zss90YRGik0xC2-2" style="edgeStyle=orthogonalEdgeStyle;rounded=0;orthogonalLoop=1;jettySize=auto;html=1;entryX=0.5;entryY=0;entryDx=0;entryDy=0;" edge="1" parent="WIyWlLk6GJQsqaUBKTNV-1" source="7JXXCMrdwitXyQzOqRTU-10" target="7JXXCMrdwitXyQzOqRTU-0">
          <mxGeometry relative="1" as="geometry" />
        </mxCell>
        <mxCell id="7JXXCMrdwitXyQzOqRTU-10" value="&lt;b&gt;Input&lt;/b&gt; $$X\\dim(b, s, h)&lt;br&gt;$$" style="rounded=1;whiteSpace=wrap;html=1;labelBackgroundColor=none;fillColor=#dae8fc;strokeColor=#6c8ebf;verticalAlign=top;" parent="WIyWlLk6GJQsqaUBKTNV-1" vertex="1">
          <mxGeometry x="-255" width="130" height="80" as="geometry" />
        </mxCell>
        <mxCell id="d6zdg5Zss90YRGik0xC2-4" style="edgeStyle=orthogonalEdgeStyle;rounded=0;orthogonalLoop=1;jettySize=auto;html=1;entryX=0.5;entryY=0;entryDx=0;entryDy=0;" edge="1" parent="WIyWlLk6GJQsqaUBKTNV-1" source="7JXXCMrdwitXyQzOqRTU-12" target="7JXXCMrdwitXyQzOqRTU-14">
          <mxGeometry relative="1" as="geometry" />
        </mxCell>
        <mxCell id="d6zdg5Zss90YRGik0xC2-5" style="edgeStyle=orthogonalEdgeStyle;rounded=0;orthogonalLoop=1;jettySize=auto;html=1;" edge="1" parent="WIyWlLk6GJQsqaUBKTNV-1" source="7JXXCMrdwitXyQzOqRTU-12" target="7JXXCMrdwitXyQzOqRTU-51">
          <mxGeometry relative="1" as="geometry" />
        </mxCell>
        <mxCell id="d6zdg5Zss90YRGik0xC2-6" style="edgeStyle=orthogonalEdgeStyle;rounded=0;orthogonalLoop=1;jettySize=auto;html=1;entryX=0.5;entryY=0;entryDx=0;entryDy=0;" edge="1" parent="WIyWlLk6GJQsqaUBKTNV-1" source="7JXXCMrdwitXyQzOqRTU-12" target="7JXXCMrdwitXyQzOqRTU-50">
          <mxGeometry relative="1" as="geometry" />
        </mxCell>
        <mxCell id="7JXXCMrdwitXyQzOqRTU-12" value="$$X&#39;\\dim(b, s, 3h)$$&lt;b&gt;&lt;br&gt;&lt;/b&gt;" style="rounded=0;whiteSpace=wrap;html=1;glass=0;shadow=0;sketch=0;align=center;verticalAlign=top;" parent="WIyWlLk6GJQsqaUBKTNV-1" vertex="1">
          <mxGeometry x="-250" y="200" width="120" height="60" as="geometry" />
        </mxCell>
        <mxCell id="d6zdg5Zss90YRGik0xC2-14" style="edgeStyle=orthogonalEdgeStyle;rounded=0;orthogonalLoop=1;jettySize=auto;html=1;" edge="1" parent="WIyWlLk6GJQsqaUBKTNV-1" source="7JXXCMrdwitXyQzOqRTU-14">
          <mxGeometry relative="1" as="geometry">
            <mxPoint x="-330" y="380" as="targetPoint" />
          </mxGeometry>
        </mxCell>
        <mxCell id="7JXXCMrdwitXyQzOqRTU-14" value="$$Q\\dim(b, s, h)$$" style="rounded=0;whiteSpace=wrap;html=1;glass=0;shadow=0;sketch=0;verticalAlign=top;" parent="WIyWlLk6GJQsqaUBKTNV-1" vertex="1">
          <mxGeometry x="-390" y="290" width="120" height="60" as="geometry" />
        </mxCell>
        <mxCell id="7JXXCMrdwitXyQzOqRTU-26" value="&lt;b&gt;Layer_past&lt;/b&gt;&lt;br&gt;list[&lt;b&gt;past_key&lt;/b&gt;,&amp;nbsp;&lt;b&gt;past_value&lt;/b&gt;]" style="rounded=1;whiteSpace=wrap;html=1;shadow=0;glass=0;labelBackgroundColor=none;sketch=0;align=center;fillColor=#dae8fc;strokeColor=#6c8ebf;verticalAlign=top;" parent="WIyWlLk6GJQsqaUBKTNV-1" vertex="1">
          <mxGeometry x="-710" y="450" width="166" height="150" as="geometry" />
        </mxCell>
        <mxCell id="7JXXCMrdwitXyQzOqRTU-28" value="&lt;b&gt;Past_key&lt;/b&gt;&lt;br&gt;$$dim(b,n,h&#39;,s)$$&lt;br&gt;&lt;b&gt;&lt;br&gt;&lt;/b&gt;" style="rounded=0;whiteSpace=wrap;html=1;glass=0;shadow=0;sketch=0;verticalAlign=top;" parent="WIyWlLk6GJQsqaUBKTNV-1" vertex="1">
          <mxGeometry x="-185" y="670" width="140" height="60" as="geometry" />
        </mxCell>
        <mxCell id="7JXXCMrdwitXyQzOqRTU-46" value="$$W=Q\cdot K/\sqrt{s&#39;}\\dim(b,n,s,s&#39;)$$" style="rounded=0;whiteSpace=wrap;html=1;shadow=0;glass=0;labelBackgroundColor=none;sketch=0;align=center;verticalAlign=top;" parent="WIyWlLk6GJQsqaUBKTNV-1" vertex="1">
          <mxGeometry x="-220" y="810" width="160" height="80" as="geometry" />
        </mxCell>
        <mxCell id="7JXXCMrdwitXyQzOqRTU-49" style="edgeStyle=none;rounded=1;orthogonalLoop=1;jettySize=auto;html=1;exitX=0.5;exitY=1;exitDx=0;exitDy=0;verticalAlign=top;" parent="WIyWlLk6GJQsqaUBKTNV-1" source="7JXXCMrdwitXyQzOqRTU-0" target="7JXXCMrdwitXyQzOqRTU-0" edge="1">
          <mxGeometry relative="1" as="geometry" />
        </mxCell>
        <mxCell id="d6zdg5Zss90YRGik0xC2-13" style="edgeStyle=orthogonalEdgeStyle;rounded=0;orthogonalLoop=1;jettySize=auto;html=1;entryX=0.5;entryY=0;entryDx=0;entryDy=0;" edge="1" parent="WIyWlLk6GJQsqaUBKTNV-1" source="7JXXCMrdwitXyQzOqRTU-50" target="7JXXCMrdwitXyQzOqRTU-4">
          <mxGeometry relative="1" as="geometry" />
        </mxCell>
        <mxCell id="7JXXCMrdwitXyQzOqRTU-50" value="$$K\\dim(b, s, h)$$" style="rounded=0;whiteSpace=wrap;html=1;glass=0;shadow=0;sketch=0;verticalAlign=top;" parent="WIyWlLk6GJQsqaUBKTNV-1" vertex="1">
          <mxGeometry x="-250" y="290" width="120" height="60" as="geometry" />
        </mxCell>
        <mxCell id="d6zdg5Zss90YRGik0xC2-15" style="edgeStyle=orthogonalEdgeStyle;rounded=0;orthogonalLoop=1;jettySize=auto;html=1;entryX=0.85;entryY=0;entryDx=0;entryDy=0;entryPerimeter=0;" edge="1" parent="WIyWlLk6GJQsqaUBKTNV-1" source="7JXXCMrdwitXyQzOqRTU-51" target="7JXXCMrdwitXyQzOqRTU-4">
          <mxGeometry relative="1" as="geometry" />
        </mxCell>
        <mxCell id="7JXXCMrdwitXyQzOqRTU-51" value="$$V\\dim(b, s, h)$$" style="rounded=0;whiteSpace=wrap;html=1;glass=0;shadow=0;sketch=0;verticalAlign=top;" parent="WIyWlLk6GJQsqaUBKTNV-1" vertex="1">
          <mxGeometry x="-110" y="290" width="120" height="60" as="geometry" />
        </mxCell>
        <mxCell id="7JXXCMrdwitXyQzOqRTU-52" value="$$Q\\dim(b,n, s,h&#39;)$$" style="rounded=0;whiteSpace=wrap;html=1;glass=0;shadow=0;sketch=0;verticalAlign=top;" parent="WIyWlLk6GJQsqaUBKTNV-1" vertex="1">
          <mxGeometry x="-390" y="470" width="120" height="60" as="geometry" />
        </mxCell>
        <mxCell id="7JXXCMrdwitXyQzOqRTU-55" value="$$V\\dim(b,n,s,h&#39;)$$" style="rounded=0;whiteSpace=wrap;html=1;glass=0;shadow=0;sketch=0;verticalAlign=top;" parent="WIyWlLk6GJQsqaUBKTNV-1" vertex="1">
          <mxGeometry x="-110" y="470" width="120" height="60" as="geometry" />
        </mxCell>
        <mxCell id="7JXXCMrdwitXyQzOqRTU-57" value="&lt;b&gt;Past_value&lt;/b&gt;&lt;br&gt;$$dim(b,n,s,h&#39;)$$&lt;br&gt;&lt;b&gt;&lt;br&gt;&lt;/b&gt;" style="rounded=0;whiteSpace=wrap;html=1;glass=0;shadow=0;sketch=0;verticalAlign=top;" parent="WIyWlLk6GJQsqaUBKTNV-1" vertex="1">
          <mxGeometry x="15" y="660" width="140" height="60" as="geometry" />
        </mxCell>
        <mxCell id="7JXXCMrdwitXyQzOqRTU-58" value="$$K\\dim(b,n, h&#39;,s&#39;)$$" style="rounded=0;whiteSpace=wrap;html=1;glass=0;shadow=0;sketch=0;verticalAlign=top;" parent="WIyWlLk6GJQsqaUBKTNV-1" vertex="1">
          <mxGeometry x="-185" y="720" width="120" height="60" as="geometry" />
        </mxCell>
        <mxCell id="7JXXCMrdwitXyQzOqRTU-59" value="$$V\\dim(b,n,s&#39;,h&#39;)$$" style="rounded=0;whiteSpace=wrap;html=1;glass=0;shadow=0;sketch=0;verticalAlign=top;" parent="WIyWlLk6GJQsqaUBKTNV-1" vertex="1">
          <mxGeometry x="5" y="750" width="120" height="60" as="geometry" />
        </mxCell>
        <mxCell id="7JXXCMrdwitXyQzOqRTU-60" value="&lt;b&gt;Conv1D&lt;/b&gt;$$Para=(h,h)$$" style="rounded=0;whiteSpace=wrap;html=1;shadow=0;glass=0;labelBackgroundColor=none;sketch=0;align=center;verticalAlign=top;" parent="WIyWlLk6GJQsqaUBKTNV-1" vertex="1">
          <mxGeometry x="-255" y="1340" width="120" height="60" as="geometry" />
        </mxCell>
        <mxCell id="7JXXCMrdwitXyQzOqRTU-61" value="&lt;b&gt;Mask&lt;/b&gt;$$w_{ij}=b_m,\\ \textrm{if}\&amp;nbsp; w_{ij}\textrm{&lt;br&gt;is masked.}$$" style="rounded=0;whiteSpace=wrap;html=1;shadow=0;glass=0;labelBackgroundColor=none;sketch=0;align=center;verticalAlign=top;" parent="WIyWlLk6GJQsqaUBKTNV-1" vertex="1">
          <mxGeometry x="-210" y="895" width="140" height="85" as="geometry" />
        </mxCell>
        <mxCell id="7JXXCMrdwitXyQzOqRTU-62" style="edgeStyle=none;rounded=1;orthogonalLoop=1;jettySize=auto;html=1;exitX=0.75;exitY=0;exitDx=0;exitDy=0;" parent="WIyWlLk6GJQsqaUBKTNV-1" source="7JXXCMrdwitXyQzOqRTU-58" target="7JXXCMrdwitXyQzOqRTU-58" edge="1">
          <mxGeometry relative="1" as="geometry" />
        </mxCell>
        <mxCell id="7JXXCMrdwitXyQzOqRTU-63" value="$$W=W+M&lt;br&gt;\\dim(b,n,s,s&#39;)$$" style="rounded=0;whiteSpace=wrap;html=1;shadow=0;glass=0;labelBackgroundColor=none;sketch=0;align=center;verticalAlign=top;" parent="WIyWlLk6GJQsqaUBKTNV-1" vertex="1">
          <mxGeometry x="-215" y="990" width="160" height="80" as="geometry" />
        </mxCell>
        <mxCell id="7JXXCMrdwitXyQzOqRTU-64" value="&lt;b&gt;Attention_mask&lt;br&gt;&lt;/b&gt;$$M\\dim(b,s)$$" style="rounded=1;whiteSpace=wrap;html=1;shadow=0;glass=0;labelBackgroundColor=none;sketch=0;align=center;fillColor=#dae8fc;strokeColor=#6c8ebf;verticalAlign=top;" parent="WIyWlLk6GJQsqaUBKTNV-1" vertex="1">
          <mxGeometry x="-480" y="760" width="190" height="110" as="geometry" />
        </mxCell>
        <mxCell id="7JXXCMrdwitXyQzOqRTU-66" value="Softmax(on s)" style="rounded=0;whiteSpace=wrap;html=1;shadow=0;glass=0;labelBackgroundColor=none;sketch=0;align=center;verticalAlign=top;" parent="WIyWlLk6GJQsqaUBKTNV-1" vertex="1">
          <mxGeometry x="-200" y="1080" width="140" height="40" as="geometry" />
        </mxCell>
        <mxCell id="7JXXCMrdwitXyQzOqRTU-67" value="$$W=W\cdot V\\dim(b,n,s,h&#39;)$$" style="rounded=0;whiteSpace=wrap;html=1;shadow=0;glass=0;labelBackgroundColor=none;sketch=0;align=center;verticalAlign=top;" parent="WIyWlLk6GJQsqaUBKTNV-1" vertex="1">
          <mxGeometry x="-275" y="1060" width="160" height="80" as="geometry" />
        </mxCell>
        <mxCell id="7JXXCMrdwitXyQzOqRTU-68" value="$$W\\dim(b,s,n,h&#39;)$$" style="rounded=0;whiteSpace=wrap;html=1;shadow=0;glass=0;labelBackgroundColor=none;sketch=0;align=center;verticalAlign=top;" parent="WIyWlLk6GJQsqaUBKTNV-1" vertex="1">
          <mxGeometry x="-275" y="1160" width="160" height="80" as="geometry" />
        </mxCell>
        <mxCell id="7JXXCMrdwitXyQzOqRTU-70" value="$$W\\dim(b,s,h)$$" style="rounded=0;whiteSpace=wrap;html=1;shadow=0;glass=0;labelBackgroundColor=none;sketch=0;align=center;verticalAlign=top;" parent="WIyWlLk6GJQsqaUBKTNV-1" vertex="1">
          <mxGeometry x="-275" y="1240" width="160" height="80" as="geometry" />
        </mxCell>
        <mxCell id="7JXXCMrdwitXyQzOqRTU-72" value="$$W\\dim(b,s,h)$$" style="rounded=0;whiteSpace=wrap;html=1;shadow=0;glass=0;labelBackgroundColor=none;sketch=0;align=center;verticalAlign=top;" parent="WIyWlLk6GJQsqaUBKTNV-1" vertex="1">
          <mxGeometry x="-270" y="1420" width="160" height="80" as="geometry" />
        </mxCell>
        <mxCell id="7JXXCMrdwitXyQzOqRTU-73" value="&lt;b&gt;Dropout&lt;/b&gt;&lt;br&gt;$$Para(p=r)$$" style="rounded=0;whiteSpace=wrap;html=1;shadow=0;glass=0;labelBackgroundColor=none;sketch=0;align=center;verticalAlign=top;" parent="WIyWlLk6GJQsqaUBKTNV-1" vertex="1">
          <mxGeometry x="-245" y="1520" width="120" height="60" as="geometry" />
        </mxCell>
        <mxCell id="7JXXCMrdwitXyQzOqRTU-74" value="$$O=list[W,KV_P, \\W_{all}]$$" style="rounded=0;whiteSpace=wrap;html=1;shadow=0;glass=0;labelBackgroundColor=none;sketch=0;align=center;verticalAlign=top;" parent="WIyWlLk6GJQsqaUBKTNV-1" vertex="1">
          <mxGeometry x="-270" y="1590" width="160" height="80" as="geometry" />
        </mxCell>
        <mxCell id="7JXXCMrdwitXyQzOqRTU-76" value="$$KV_P=stack[K,V]\\&lt;br&gt;dim_K=dim_V=&lt;br&gt;(b,n,s&#39;,h&#39;)$$" style="rounded=0;whiteSpace=wrap;html=1;glass=0;shadow=0;sketch=0;verticalAlign=top;" parent="WIyWlLk6GJQsqaUBKTNV-1" vertex="1">
          <mxGeometry x="165" y="745" width="230" height="115" as="geometry" />
        </mxCell>
        <mxCell id="7JXXCMrdwitXyQzOqRTU-54" value="$$K\\dim(b,n, h&#39;,s)$$" style="rounded=0;whiteSpace=wrap;html=1;glass=0;shadow=0;sketch=0;verticalAlign=top;" parent="WIyWlLk6GJQsqaUBKTNV-1" vertex="1">
          <mxGeometry x="-250" y="470" width="120" height="60" as="geometry" />
        </mxCell>
      </root>
    </mxGraphModel>
  </diagram>
</mxfile>
